<svg width="20" height="20" viewBox="0 0 20 20" fill="none" xmlns="http://www.w3.org/2000/svg">
<path d="M6.37939 15.8733C5.99606 15.8733 5.66363 15.7326 5.3821 15.4512C5.10071 15.1697 4.96002 14.8372 4.96002 14.4539V2.87701C4.96002 2.49229 5.10071 2.15868 5.3821 1.87618C5.66363 1.59382 5.99606 1.45264 6.37939 1.45264H15.4563C15.841 1.45264 16.1746 1.59382 16.4571 1.87618C16.7395 2.15868 16.8806 2.49229 16.8806 2.87701V14.4539C16.8806 14.8372 16.7395 15.1697 16.4571 15.4512C16.1746 15.7326 15.841 15.8733 15.4563 15.8733H6.37939ZM6.37939 14.4539H15.4563V2.87701H6.37939V14.4539ZM3.71002 18.5476C3.3253 18.5476 2.99169 18.4065 2.70919 18.1241C2.42683 17.8416 2.28564 17.508 2.28564 17.1233V4.8366C2.28564 4.63632 2.35419 4.46798 2.49127 4.3316C2.62835 4.19521 2.79842 4.12701 3.00148 4.12701C3.20453 4.12701 3.37335 4.19521 3.50794 4.3316C3.64266 4.46798 3.71002 4.63632 3.71002 4.8366V17.1233H13.4967C13.697 17.1233 13.8653 17.1918 14.0017 17.3289C14.1381 17.4661 14.2063 17.6362 14.2063 17.8391C14.2063 18.0422 14.1381 18.211 14.0017 18.3458C13.8653 18.4803 13.697 18.5476 13.4967 18.5476H3.71002Z" fill="white"/>
</svg>
